#!OML:ASF F:\VICON\USERDATA\INSTALL\rory3\rory3.ASF
:FULLY-SPECIFIED
:DEGREES
39
root -5.400108384284069 18.071113331314137 -1.6304923988132862 -186.20731806116868 30.456180529630014 -187.75840748682745
lfemur -11.588821663209636 -7.018289491374292 -21.843291523202677
ltibia 16.986213185107413
lfoot 3.6958974226768335 -36.89431795205073
ltoes 17.439639530251313
rfemur 5.729176855655041 -6.530650758897037 5.046033147287632
rtibia 33.01969303037369
rfoot 6.929584172300584 -32.92943242269698
rtoes 18.57155994815495
lowerback -8.106650997736905 5.04800139591199 9.727296908021568
upperback -2.2118899709749478 8.180889897152907 14.803531440620823
thorax 0.9730273171842103 5.030506883454454 10.501341125918351
lowerneck -2.930600371043435 -22.467606258307935 -5.947553145374259
upperneck 27.615611119727717 -26.40859043577588 -6.331037565449947
head 8.651422354197667 -12.303466433746477 -2.9936694269714788
lclavicle 1.2006404324064997e-14 -4.06613459315758e-15
lhumerus 18.864516543788504 -17.028339307141387 89.85827044997504
lradius 35.67538738845062
lwrist 52.107884745079836
lhand -13.45790332516389 44.853867853398704
lfingers 7.12502
lthumb -167.3588581286865 11.064052075257464
rclavicle 1.2006404324064997e-14 -4.066134593157581e-15
rhumerus 34.811557781854695 42.687084504359525 -80.99146828778296
rradius 27.052339183222124
rwrist -11.694114807053378
rhand -1.9797027540685193 -3.25217167372163
rfingers 7.12502
rthumb 23.697934764327435 -30.658205541718242
40
root -5.366099493989377 18.062004717618112 -1.8927699810376732 -186.18882497785813 25.364622537537524 -186.96092882082775
lfemur -12.729862906990906 -9.092096515853015 -20.789638554181693
ltibia 19.016666667960124
lfoot 4.81556277256076 -39.46960692611614
ltoes 20.875739315704493
rfemur 8.134046876250927 -7.187779658129283 6.7122451904746185
rtibia 31.68594102230799
rfoot 9.796946830093809 -33.33545674120135
rtoes 21.284581559937635
lowerback -7.704684055084292 7.002567633029621 11.865878084456504
upperback -3.9611594003816366 11.399320139203844 14.290273018191884
thorax -1.127398519596746 6.747688929680243 8.683897874608597
lowerneck -2.761027137655545 -23.56914500567297 -4.906809291655993
upperneck 25.258582678387242 -30.28169567648078 -3.538618700008998
head 8.134681653114916 -14.238432034864358 -2.545540357578443
lclavicle 1.1544339645312414e-14 -4.441484530015663e-15
lhumerus 22.93276024768374 -10.75650725173181 85.04937100747172
lradius 43.781152573217504
lwrist 51.14987850173467
lhand -17.63856006935861 35.622693446781845
lfingers 7.12502
lthumb -171.38515576824847 -15.638138351321913
rclavicle 1.1544339645312414e-14 -4.441484530015663e-15
rhumerus 48.96201063999282 47.72428551181244 -74.41333822198064
rradius 32.428353727679706
rwrist -3.454648195879436
rhand -3.9169872405791537 2.1033994242121103
rfingers 7.12502
rthumb 21.827398671214844 -25.514295709507817
41
root -5.328663808890692 18.071245081782187 -2.170346838892609 -185.2301702819869 20.4460384823307 -186.1546041478924
lfemur -14.188521129816962 -11.168342564174958 -19.904384809632948
ltibia 19.734497178439707
lfoot 6.6753548070179285 -41.65624658935172
ltoes 24.779908017765685
rfemur 9.48343057277993 -7.6319682882958535 8.523738037842682
rtibia 30.33710723145273
rfoot 12.34085037889287 -34.75893705130501
rtoes 23.61830754620293
lowerback -7.499624666741586 8.619161794464198 13.766931268516377
upperback -5.866647712119696 13.988079296983479 13.04634809959379
thorax -2.8564842702192164 7.981507527089677 6.237474748276287
lowerneck -3.118615119464243 -23.40132775133554 -3.8281294638710968
upperneck 22.48461778511081 -33.37137693083481 -0.5968737945833578
head 7.679939248075388 -16.13941589578527 -2.080207593108618
lclavicle 1.0914670542830134e-14 -4.959416312628753e-15
lhumerus 28.20800490082558 -4.729837751831518 80.5579571826633
lradius 51.27920998911108
lwrist 47.27287288132851
lhand -20.583430939527226 28.400359243303292
lfingers 7.12502
lthumb -174.22469327170748 -20.810232611743245
rclavicle 1.0914670542830133e-14 -4.959416312628752e-15
rhumerus 63.34702591273884 48.239069160120735 -68.22796367324503
rradius 37.48297872048655
rwrist 1.1263924386939
rhand -7.850351230835493 6.656829697741843
rfingers 7.12502
rthumb 18.04223743018902 -21.40441180189613
42
root -5.273981830856123 18.094948538070348 -2.4123255105966943 -183.64822475457623 15.675161883821216 -185.30772849131722
lfemur -15.653065569303203 -12.8631742919566 -19.023522469716173
ltibia 20.166367134114253
lfoot 9.26514796750026 -43.32644592643433
ltoes 29.248869551135908
rfemur 10.702522551789858 -7.829101342357276 10.517551934280213
rtibia 28.888840435313305
rfoot 14.604588879473015 -36.358843213954415
rtoes 25.663071327939765
lowerback -7.557425703279349 9.912937371956636 15.34426699750636
upperback -7.779808718759315 16.031679558097803 11.38181938841213
thorax -4.201824057068507 8.86466121631752 3.7000846273217607
lowerneck -3.7209046100029273 -22.730508108083384 -3.0434695917360357
upperneck 19.867800242978948 -34.92655566237586 1.8484141433032528
head 7.3107169118158595 -17.292884696898767 -1.6668275537340025
lclavicle 1.1268825861841672e-14 -4.662764665560795e-15
lhumerus 34.77966552416631 1.8412960033119283 77.40599348179477
lradius 57.63882701087334
lwrist 42.69799434403846
lhand -22.60522795860738 23.63938885363509
lfingers 7.12502
lthumb -176.17165939566854 -20.955957910764226
rclavicle 1.1268825861841672e-14 -4.662764665560794e-15
rhumerus 77.40233316220123 47.324979644506165 -62.14648345001827
rradius 42.18744685886983
rwrist 3.3580978343448376
rhand -12.005787426400026 10.174508070532312
rfingers 7.12502
rthumb 14.046224385374671 -18.30902089786614
43
root -5.214817327945263 18.11798268227393 -2.675507392014039 -182.7072006741867 10.657150735967367 -185.23962965369947
lfemur -17.384072539496277 -14.43911645178585 -18.277189943800458
ltibia 20.646227222577554
lfoot 12.083409578279767 -45.22782405406325
ltoes 33.365999211135716
rfemur 11.741486700065128 -8.260654767073028 12.597102762582452
rtibia 26.894976949993602
rfoot 16.61665910159803 -38.233077980886826
rtoes 26.96538390406003
lowerback -7.930300932753255 10.662523856074799 16.291609556543804
upperback -9.78817938772491 17.46432225780378 9.627917638021538
thorax -5.503940087045407 9.488515297188252 1.4136859447851144
lowerneck -4.536852081748351 -22.81352046248552 -2.7652568283202124
upperneck 17.516925241449442 -35.599820166868575 3.376924292994638
head 6.9416747619839825 -17.72299850841066 -1.3517584544822852
lclavicle 1.0741857289949952e-14 -5.092892873013314e-15
lhumerus 41.79888866921694 7.468998060487056 75.25957389822344
lradius 62.71367618177714
lwrist 38.324370284487976
lhand -23.80861796173648 20.196463462331806
lfingers 7.12502
lthumb -177.33052152844905 -29.231851931369192
rclavicle 1.0741857289949952e-14 -5.092892873013314e-15
rhumerus 89.46800469260447 45.3764424058138 -56.865670579053145
rradius 46.4805198304828
rwrist 4.661614699768041
rhand -15.925441262892747 12.78080333185298
rfingers 7.12502
rthumb 10.272299183211178 -16.016808479442904
44
root -5.148260911844932 18.135171646088267 -2.926627039872929 -181.12004885729704 6.094154079716528 -184.4829582195198
lfemur -19.269753217735296 -15.81338729400915 -17.270462614297017
ltibia 21.612760036144465
lfoot 15.046899952585589 -46.503357481071596
ltoes 37.39547854738104
rfemur 13.118984353735591 -8.787480980661622 14.91500922197033
rtibia 24.306948054939898
rfoot 19.13834030133328 -39.572396807156636
rtoes 27.528943452063025
lowerback -8.419814632703346 11.084750507350142 16.895924938895917
upperback -11.646563307301726 18.770424740603822 8.087849118215017
thorax -6.720720360121287 10.18580212370118 -0.4268253816439136
lowerneck -5.289466253150356 -23.185878783578534 -2.9237649046058647
upperneck 15.506899237670282 -35.28412413467248 4.352895488527639
head 6.590913648035775 -17.444703680684814 -1.0747394114679383
lclavicle 1.0760370840000698e-14 -5.0660815641915866e-15
lhumerus 49.049792227318804 12.155836296634767 73.73230874947389
lradius 67.17431870207406
lwrist 35.084781124929364
lhand -24.251007068913136 17.47799892155738
lfingers 7.12502
lthumb -177.75926834112252 -36.23192915583387
rclavicle 1.0760370840000698e-14 -5.0660815641915866e-15
rhumerus 99.48726971082542 42.71171442520483 -53.06607129485123
rradius 51.13451641539962
rwrist 6.684428721152091
rhand -19.323614084713196 14.999201844020583
rfingers 7.12502
rthumb 6.9945221810717655 -14.02954051555723
45
root -5.089566096440239 18.140464672782056 -3.19294771914989 -179.67532985318445 1.8355248438705551 -183.68757950577054
lfemur -21.232336300220954 -17.29193386630554 -16.167935431670113
ltibia 22.836162561014994
lfoot 17.802547193819507 -47.27204170504193
ltoes 41.17033024814167
rfemur 14.556504682120224 -9.502639131995627 17.192776898400616
rtibia 21.255358359247953
rfoot 22.20376948022242 -40.52002861303015
rtoes 27.25311567275119
lowerback -9.039438416138442 11.341062405291904 17.189429986952153
upperback -13.304812942675696 19.8355095360846 6.7175245634194045
thorax -7.741641347568734 10.798469275542315 -1.9274525946454149
lowerneck -5.841923646353685 -23.587409931234266 -3.4635146739068654
upperneck 13.741168553576617 -34.82522085139657 5.034668161437746
head 6.292812054806441 -17.07446567095445 -0.8062625147950854
lclavicle 1.0387898097394926e-14 -5.377206435461926e-15
lhumerus 55.66247149506502 15.999100298985631 71.7627267732535
lradius 71.13190484816343
lwrist 32.70938427680505
lhand -24.544030304575273 15.030336581067276
lfingers 7.12502
lthumb -178.04423943812407 -37.825929782548755
rclavicle 1.0387898097394926e-14 -5.377206435461926e-15
rhumerus 107.0486277350793 39.69440008495493 -50.98117469963098
rradius 56.11471442708067
rwrist 9.26527726954819
rhand -22.806305925688996 16.760573133424973
rfingers 7.12502
rthumb 3.633030910433323 -12.42698851935518
46
root -5.048622123305373 18.134555506911138 -3.4596444703812126 -178.92113206661793 -2.0250053382153226 -183.22042399877068
lfemur -22.946052878730143 -18.92607939298069 -15.047301388489885
ltibia 23.98957593720729
lfoot 20.059729799468442 -47.804138060425174
ltoes 44.34381817570497
rfemur 16.04198129256279 -10.364128151320083 19.15200072216938
rtibia 17.93171796856243
rfoot 25.61583652077262 -41.20234373967149
rtoes 26.582154348319264
lowerback -9.762954289411297 12.000459448965996 17.150945402579268
upperback -14.77168463673367 20.512605971396013 5.407680165371092
thorax -8.475647399824297 10.905868716913112 -3.1461255235583705
lowerneck -6.206654566474109 -23.92452048268395 -4.19688573579573
upperneck 12.269022277004934 -34.638741318365035 5.606661579747574
head 6.074372912454546 -16.894717282329914 -0.5424651705572674
lclavicle 9.55167325603256e-15 -6.105322711675483e-15
lhumerus 61.13766670534263 19.583639684117713 69.21627881020494
lradius 74.70148630626073
lwrist 30.449887764459866
lhand -25.076097600218333 13.003694755568608
lfingers 7.12502
lthumb -178.55817535157132 -39.2915397448277
rclavicle 9.55167325603256e-15 -6.105322711675483e-15
rhumerus 112.73634670468525 36.72836414638548 -49.8985905576519
rradius 60.934076217230604
rwrist 11.842749986094748
rhand -26.773592837440564 18.270592917542633
rfingers 7.12502
rthumb -0.19654928887389644 -11.013166440078464
